<svg width="206" height="35" viewBox="0 0 206 35" fill="none" xmlns="http://www.w3.org/2000/svg">
<path d="M0.8 10.325C1.54667 10.1383 2.52667 9.94 3.74 9.73C4.97667 9.52 6.4 9.415 8.01 9.415C9.17667 9.415 10.1567 9.57833 10.95 9.905C11.7433 10.2083 12.4083 10.6633 12.945 11.27C13.1083 11.1533 13.365 10.99 13.715 10.78C14.065 10.57 14.4967 10.3717 15.01 10.185C15.5233 9.975 16.095 9.8 16.725 9.66C17.355 9.49667 18.0317 9.415 18.755 9.415C20.155 9.415 21.2983 9.625 22.185 10.045C23.0717 10.4417 23.76 11.0133 24.25 11.76C24.7633 12.5067 25.1017 13.3933 25.265 14.42C25.4517 15.4467 25.545 16.5667 25.545 17.78V28H22.29V18.48C22.29 17.4067 22.2317 16.485 22.115 15.715C22.0217 14.945 21.8233 14.3033 21.52 13.79C21.24 13.2767 20.8433 12.9033 20.33 12.67C19.84 12.4133 19.1983 12.285 18.405 12.285C17.3083 12.285 16.3983 12.4367 15.675 12.74C14.975 13.02 14.4967 13.2767 14.24 13.51C14.4267 14.1167 14.5667 14.7817 14.66 15.505C14.7533 16.2283 14.8 16.9867 14.8 17.78V28H11.545V18.48C11.545 17.4067 11.4867 16.485 11.37 15.715C11.2533 14.945 11.0433 14.3033 10.74 13.79C10.46 13.2767 10.0633 12.9033 9.55 12.67C9.06 12.4133 8.43 12.285 7.66 12.285C7.33333 12.285 6.98333 12.2967 6.61 12.32C6.23667 12.3433 5.875 12.3783 5.525 12.425C5.19833 12.4483 4.895 12.4833 4.615 12.53C4.335 12.5767 4.14833 12.6117 4.055 12.635V28H0.8V10.325Z" fill="#DA3838"/>
<path d="M34.7965 26.11C34.7965 26.74 34.5865 27.2883 34.1665 27.755C33.7465 28.2217 33.1748 28.455 32.4515 28.455C31.7282 28.455 31.1565 28.2217 30.7365 27.755C30.3165 27.2883 30.1065 26.74 30.1065 26.11C30.1065 25.48 30.3165 24.9317 30.7365 24.465C31.1565 23.9983 31.7282 23.765 32.4515 23.765C33.1748 23.765 33.7465 23.9983 34.1665 24.465C34.5865 24.9317 34.7965 25.48 34.7965 26.11ZM166.714 17.535C166.714 20.5217 167.146 23.2867 168.009 25.83C168.873 28.3733 170.144 30.73 171.824 32.9L169.514 34.475C167.694 32.2583 166.224 29.715 165.104 26.845C164.008 23.9517 163.459 20.8483 163.459 17.535C163.459 14.2217 164.008 11.13 165.104 8.26C166.224 5.36667 167.694 2.81167 169.514 0.594998L171.824 2.17C170.144 4.34 168.873 6.69667 168.009 9.24C167.146 11.7833 166.714 14.5483 166.714 17.535ZM180.235 17.535C180.235 14.5483 179.803 11.7833 178.94 9.24C178.077 6.69667 176.805 4.34 175.125 2.17L177.435 0.594998C179.255 2.81167 180.713 5.36667 181.81 8.26C182.93 11.13 183.49 14.2217 183.49 17.535C183.49 20.8483 182.93 23.9517 181.81 26.845C180.713 29.715 179.255 32.2583 177.435 34.475L175.125 32.9C176.805 30.73 178.077 28.3733 178.94 25.83C179.803 23.2867 180.235 20.5217 180.235 17.535ZM195.728 16.275C196.288 16.275 196.766 16.1817 197.163 15.995C197.56 15.785 197.886 15.5283 198.143 15.225C198.423 14.8983 198.621 14.5367 198.738 14.14C198.878 13.72 198.948 13.3 198.948 12.88V6.58C198.948 5.62333 199.053 4.77166 199.263 4.025C199.473 3.27833 199.835 2.66 200.348 2.17C200.861 1.65667 201.538 1.27167 202.378 1.015C203.241 0.734998 204.303 0.594998 205.563 0.594998H205.703V3.15C204.373 3.15 203.416 3.395 202.833 3.885C202.273 4.35167 201.993 5.26167 201.993 6.615V12.005C201.993 13.545 201.783 14.735 201.363 15.575C200.966 16.415 200.395 17.0683 199.648 17.535C200.395 18.0017 200.966 18.655 201.363 19.495C201.783 20.335 201.993 21.525 201.993 23.065V28.455C201.993 29.8083 202.273 30.7183 202.833 31.185C203.416 31.675 204.373 31.92 205.703 31.92V34.475H205.563C204.303 34.475 203.241 34.3467 202.378 34.09C201.538 33.8333 200.861 33.4483 200.348 32.935C199.835 32.4217 199.473 31.7917 199.263 31.045C199.053 30.2983 198.948 29.4467 198.948 28.49V22.19C198.948 21.77 198.878 21.3617 198.738 20.965C198.621 20.545 198.423 20.1833 198.143 19.88C197.886 19.5533 197.56 19.2967 197.163 19.11C196.766 18.9 196.288 18.795 195.728 18.795V16.275Z" fill="#CFCFCF"/>
<path d="M46.6648 0.839999C47.6214 0.839999 48.4381 0.909999 49.1148 1.05C49.8148 1.19 50.3048 1.31833 50.5848 1.435L49.9898 4.235C49.7098 4.095 49.3131 3.96666 48.7998 3.85C48.2864 3.71 47.6564 3.64 46.9098 3.64C45.3931 3.64 44.3314 4.06 43.7248 4.9C43.1181 5.71667 42.8148 6.825 42.8148 8.225V9.8H49.8148V12.53H42.8148V28H39.5598V8.155C39.5598 5.82167 40.1314 4.025 41.2748 2.765C42.4181 1.48167 44.2148 0.839999 46.6648 0.839999ZM69.1257 18.9C69.1257 20.3467 68.9157 21.6533 68.4957 22.82C68.0757 23.9867 67.4807 24.99 66.7107 25.83C65.9641 26.67 65.0657 27.3233 64.0157 27.79C62.9657 28.2333 61.8224 28.455 60.5857 28.455C59.3491 28.455 58.2057 28.2333 57.1557 27.79C56.1057 27.3233 55.1957 26.67 54.4257 25.83C53.6791 24.99 53.0957 23.9867 52.6757 22.82C52.2557 21.6533 52.0457 20.3467 52.0457 18.9C52.0457 17.4767 52.2557 16.1817 52.6757 15.015C53.0957 13.825 53.6791 12.81 54.4257 11.97C55.1957 11.13 56.1057 10.4883 57.1557 10.045C58.2057 9.57833 59.3491 9.345 60.5857 9.345C61.8224 9.345 62.9657 9.57833 64.0157 10.045C65.0657 10.4883 65.9641 11.13 66.7107 11.97C67.4807 12.81 68.0757 13.825 68.4957 15.015C68.9157 16.1817 69.1257 17.4767 69.1257 18.9ZM65.7307 18.9C65.7307 16.8467 65.2641 15.225 64.3307 14.035C63.4207 12.8217 62.1724 12.215 60.5857 12.215C58.9991 12.215 57.7391 12.8217 56.8057 14.035C55.8957 15.225 55.4407 16.8467 55.4407 18.9C55.4407 20.9533 55.8957 22.5867 56.8057 23.8C57.7391 24.99 58.9991 25.585 60.5857 25.585C62.1724 25.585 63.4207 24.99 64.3307 23.8C65.2641 22.5867 65.7307 20.9533 65.7307 18.9ZM73.7053 10.325C74.4519 10.1383 75.4436 9.94 76.6803 9.73C77.9169 9.52 79.3403 9.415 80.9503 9.415C82.3969 9.415 83.5986 9.625 84.5553 10.045C85.5119 10.4417 86.2703 11.0133 86.8303 11.76C87.4136 12.4833 87.8219 13.3583 88.0553 14.385C88.2886 15.4117 88.4053 16.5433 88.4053 17.78V28H85.1503V18.48C85.1503 17.36 85.0686 16.4033 84.9053 15.61C84.7653 14.8167 84.5203 14.175 84.1703 13.685C83.8203 13.195 83.3536 12.845 82.7703 12.635C82.1869 12.4017 81.4636 12.285 80.6003 12.285C80.2503 12.285 79.8886 12.2967 79.5153 12.32C79.1419 12.3433 78.7803 12.3783 78.4303 12.425C78.1036 12.4483 77.8003 12.4833 77.5203 12.53C77.2636 12.5767 77.0769 12.6117 76.9603 12.635V28H73.7053V10.325ZM98.0379 25.655C99.3679 25.655 100.348 25.48 100.978 25.13C101.631 24.78 101.958 24.22 101.958 23.45C101.958 22.6567 101.643 22.0267 101.013 21.56C100.383 21.0933 99.3446 20.5683 97.8979 19.985C97.1979 19.705 96.5213 19.425 95.8679 19.145C95.2379 18.8417 94.6896 18.4917 94.2229 18.095C93.7563 17.6983 93.3829 17.22 93.1029 16.66C92.8229 16.1 92.6829 15.4117 92.6829 14.595C92.6829 12.985 93.2779 11.7133 94.4679 10.78C95.6579 9.82333 97.2796 9.345 99.3329 9.345C99.8463 9.345 100.36 9.38 100.873 9.45C101.386 9.49667 101.865 9.56667 102.308 9.66C102.751 9.73 103.136 9.81167 103.463 9.905C103.813 9.99833 104.081 10.08 104.268 10.15L103.673 12.95C103.323 12.7633 102.775 12.5767 102.028 12.39C101.281 12.18 100.383 12.075 99.3329 12.075C98.4229 12.075 97.6296 12.2617 96.9529 12.635C96.2763 12.985 95.9379 13.545 95.9379 14.315C95.9379 14.7117 96.0079 15.0617 96.1479 15.365C96.3113 15.6683 96.5446 15.9483 96.8479 16.205C97.1746 16.4383 97.5713 16.66 98.0379 16.87C98.5046 17.08 99.0646 17.3017 99.7179 17.535C100.581 17.8617 101.351 18.1883 102.028 18.515C102.705 18.8183 103.276 19.18 103.743 19.6C104.233 20.02 104.606 20.5333 104.863 21.14C105.12 21.7233 105.248 22.4467 105.248 23.31C105.248 24.99 104.618 26.2617 103.358 27.125C102.121 27.9883 100.348 28.42 98.0379 28.42C96.4279 28.42 95.1679 28.28 94.2579 28C93.3479 27.7433 92.7296 27.545 92.4029 27.405L92.9979 24.605C93.3713 24.745 93.9663 24.955 94.7829 25.235C95.5996 25.515 96.6846 25.655 98.0379 25.655ZM108.408 18.935C108.408 17.325 108.641 15.925 109.108 14.735C109.575 13.5217 110.193 12.5183 110.963 11.725C111.733 10.9317 112.62 10.3367 113.623 9.94C114.626 9.54333 115.653 9.345 116.703 9.345C119.153 9.345 121.031 10.115 122.338 11.655C123.645 13.1717 124.298 15.4933 124.298 18.62C124.298 18.76 124.298 18.9467 124.298 19.18C124.298 19.39 124.286 19.5883 124.263 19.775H111.803C111.943 21.665 112.491 23.1 113.448 24.08C114.405 25.06 115.898 25.55 117.928 25.55C119.071 25.55 120.028 25.4567 120.798 25.27C121.591 25.06 122.186 24.8617 122.583 24.675L123.038 27.405C122.641 27.615 121.941 27.8367 120.938 28.07C119.958 28.3033 118.838 28.42 117.578 28.42C115.991 28.42 114.615 28.1867 113.448 27.72C112.305 27.23 111.36 26.565 110.613 25.725C109.866 24.885 109.306 23.8933 108.933 22.75C108.583 21.5833 108.408 20.3117 108.408 18.935ZM120.903 17.15C120.926 15.68 120.553 14.4783 119.783 13.545C119.036 12.5883 117.998 12.11 116.668 12.11C115.921 12.11 115.256 12.2617 114.673 12.565C114.113 12.845 113.635 13.2183 113.238 13.685C112.841 14.1517 112.526 14.6883 112.293 15.295C112.083 15.9017 111.943 16.52 111.873 17.15H120.903ZM136.884 28.42C135.414 28.42 134.119 28.1867 132.999 27.72C131.902 27.2533 130.969 26.6 130.199 25.76C129.452 24.92 128.892 23.9283 128.519 22.785C128.145 21.6183 127.959 20.335 127.959 18.935C127.959 17.535 128.157 16.2517 128.554 15.085C128.974 13.9183 129.557 12.915 130.304 12.075C131.05 11.2117 131.96 10.5467 133.034 10.08C134.13 9.59 135.344 9.345 136.674 9.345C137.49 9.345 138.307 9.415 139.124 9.555C139.94 9.695 140.722 9.91667 141.469 10.22L140.734 12.985C140.244 12.7517 139.672 12.565 139.019 12.425C138.389 12.285 137.712 12.215 136.989 12.215C135.169 12.215 133.769 12.7867 132.789 13.93C131.832 15.0733 131.354 16.7417 131.354 18.935C131.354 19.915 131.459 20.8133 131.669 21.63C131.902 22.4467 132.252 23.1467 132.719 23.73C133.209 24.3133 133.827 24.7683 134.574 25.095C135.32 25.3983 136.23 25.55 137.304 25.55C138.167 25.55 138.949 25.4683 139.649 25.305C140.349 25.1417 140.897 24.9667 141.294 24.78L141.749 27.51C141.562 27.6267 141.294 27.7433 140.944 27.86C140.594 27.9533 140.197 28.035 139.754 28.105C139.31 28.1983 138.832 28.2683 138.319 28.315C137.829 28.385 137.35 28.42 136.884 28.42ZM151.403 25.655C152.173 25.655 152.85 25.6433 153.433 25.62C154.04 25.5733 154.542 25.5033 154.938 25.41V19.985C154.705 19.8683 154.32 19.775 153.783 19.705C153.27 19.6117 152.64 19.565 151.893 19.565C151.403 19.565 150.878 19.6 150.318 19.67C149.782 19.74 149.28 19.8917 148.813 20.125C148.37 20.335 147.997 20.6383 147.693 21.035C147.39 21.4083 147.238 21.91 147.238 22.54C147.238 23.7067 147.612 24.5233 148.358 24.99C149.105 25.4333 150.12 25.655 151.403 25.655ZM151.123 9.345C152.43 9.345 153.527 9.52 154.413 9.87C155.323 10.1967 156.047 10.675 156.583 11.305C157.143 11.9117 157.54 12.6467 157.773 13.51C158.007 14.35 158.123 15.2833 158.123 16.31V27.685C157.843 27.7317 157.447 27.8017 156.933 27.895C156.443 27.965 155.883 28.035 155.253 28.105C154.623 28.175 153.935 28.2333 153.188 28.28C152.465 28.35 151.742 28.385 151.018 28.385C149.992 28.385 149.047 28.28 148.183 28.07C147.32 27.86 146.573 27.5333 145.943 27.09C145.313 26.6233 144.823 26.0167 144.473 25.27C144.123 24.5233 143.948 23.625 143.948 22.575C143.948 21.5717 144.147 20.7083 144.543 19.985C144.963 19.2617 145.523 18.6783 146.223 18.235C146.923 17.7917 147.74 17.465 148.673 17.255C149.607 17.045 150.587 16.94 151.613 16.94C151.94 16.94 152.278 16.9633 152.628 17.01C152.978 17.0333 153.305 17.08 153.608 17.15C153.935 17.1967 154.215 17.2433 154.448 17.29C154.682 17.3367 154.845 17.3717 154.938 17.395V16.485C154.938 15.9483 154.88 15.4233 154.763 14.91C154.647 14.3733 154.437 13.9067 154.133 13.51C153.83 13.09 153.41 12.7633 152.873 12.53C152.36 12.2733 151.683 12.145 150.843 12.145C149.77 12.145 148.825 12.2267 148.008 12.39C147.215 12.53 146.62 12.6817 146.223 12.845L145.838 10.15C146.258 9.96333 146.958 9.78833 147.938 9.625C148.918 9.43833 149.98 9.345 151.123 9.345Z" fill="#35AAFF"/>
</svg>
